<svg xmlns="http://www.w3.org/2000/svg" width="297" height="66" viewBox="0 0 297 66">
  <g id="squidgies" transform="translate(-38 -91)">
    <path id="Path_1" data-name="Path 1" d="M47.4,5.777A16.119,16.119,0,0,0,23.6,5.53a18.766,18.766,0,0,0-2.585,21.417l-5.722,6.107-4.219-.044a10.1,10.1,0,0,0-7.541,3.267A11.985,11.985,0,0,0,3.69,52.432a10.258,10.258,0,0,0,15.147.158,11.516,11.516,0,0,0,3.058-8.045l-.044-4.5,5.722-6.107A15.965,15.965,0,0,0,47.65,31.165C54.144,24.234,54.032,12.845,47.4,5.777ZM18.777,38.661l.058,5.852a8.226,8.226,0,0,1-2.184,5.746,7.327,7.327,0,0,1-10.82-.113,8.56,8.56,0,0,1-.114-11.54A7.215,7.215,0,0,1,11.1,36.273l5.487.057L22.8,29.7q.492.627,1.044,1.218T24.99,32.03Zm7.211-10.029a15.565,15.565,0,0,1-2.46-17.571,25.446,25.446,0,0,0,6.527,13.231,22.879,22.879,0,0,0,12.41,6.951A13.256,13.256,0,0,1,25.988,28.632Zm19.9-.276A19.575,19.575,0,0,1,32.2,22.006,22.191,22.191,0,0,1,26.233,7.4a13.191,13.191,0,0,1,19.026.659A15.44,15.44,0,0,1,45.891,28.356Zm0,0" transform="translate(65.701 146.874) rotate(-80)"/>
    <text id="S_UIDGIES" data-name="S   UIDGIES" transform="translate(38 140)" font-size="55" font-family="BalsamiqSans-Regular, Balsamiq Sans" letter-spacing="-0.01em"><tspan x="0" y="0" xml:space="preserve">S   UIDGIES</tspan></text>
  </g>
</svg>
